HIERARCHY
ROOT hip
{
  OFFSET 0 0 0
  CHANNELS 6 Xposition Yposition Zposition Zrotation Yrotation Xrotation
  JOINT abdomen
  {
    OFFSET 0 20.6881 -0.73152
    CHANNELS 3 Zrotation Xrotation Yrotation
    JOINT chest
    {
      OFFSET 0 11.7043 -0.48768
      CHANNELS 3 Zrotation Xrotation Yrotation
      JOINT neck
      {
        OFFSET 0 22.1894 -2.19456
        CHANNELS 3 Zrotation Xrotation Yrotation
        JOINT head
        {
          OFFSET -0.24384 7.07133 1.2192
          CHANNELS 3 Zrotation Xrotation Yrotation
          JOINT leftEye
          {
            OFFSET 4.14528 8.04674 8.04672
            CHANNELS 3 Zrotation Xrotation Yrotation
            End Site
            {
              OFFSET 1 0 0
            }
          }
          JOINT rightEye
          {
            OFFSET -3.6576 8.04674 8.04672
            CHANNELS 3 Zrotation Xrotation Yrotation
            End Site
            {
              OFFSET 1 0 0
            }
          }
        }
      }
      JOINT rCollar
      {
        OFFSET -2.68224 19.2634 -4.8768
        CHANNELS 3 Zrotation Xrotation Yrotation
        JOINT rShldr
        {
          OFFSET -8.77824 -1.95073 1.46304
          CHANNELS 3 Zrotation Xrotation Yrotation
          JOINT rForeArm
          {
            OFFSET -28.1742 -1.7115 0.48768
            CHANNELS 3 Zrotation Xrotation Yrotation
            JOINT rHand
            {
              OFFSET -22.5879 0.773209 7.07136
              CHANNELS 3 Zrotation Xrotation Yrotation
              JOINT rThumb1
              {
                OFFSET -1.2192 -0.487915 3.41376
                CHANNELS 3 Zrotation Xrotation Yrotation
                JOINT rThumb2
                {
                  OFFSET -3.37035 -0.52449 3.41376
                  CHANNELS 3 Zrotation Xrotation Yrotation
                  End Site
                  {
                    OFFSET -1.78271 -1.18214 1.43049
                  }
                }
              }
              JOINT rIndex1
              {
                OFFSET -7.75947 0.938293 5.60832
                CHANNELS 3 Zrotation Xrotation Yrotation
                JOINT rIndex2
                {
                  OFFSET -2.54057 -0.884171 1.56538
                  CHANNELS 3 Zrotation Xrotation Yrotation
                  End Site
                  {
                    OFFSET -1.62519 -0.234802 1.16502
                  }
                }
              }
              JOINT rMid1
              {
                OFFSET -8.24714 1.18213 3.41376
                CHANNELS 3 Zrotation Xrotation Yrotation
                JOINT rMid2
                {
                  OFFSET -3.10165 -0.590103 1.0647
                  CHANNELS 3 Zrotation Xrotation Yrotation
                  End Site
                  {
                    OFFSET -2.48547 -0.328903 0.83742
                  }
                }
              }
              JOINT rRing1
              {
                OFFSET -8.82822 0.546677 1.51678
                CHANNELS 3 Zrotation Xrotation Yrotation
                JOINT rRing2
                {
                  OFFSET -2.60934 -0.819778 -0.0198488
                  CHANNELS 3 Zrotation Xrotation Yrotation
                  End Site
                  {
                    OFFSET -2.33842 -0.294052 0.168128
                  }
                }
              }
              JOINT rPinky1
              {
                OFFSET -8.27202 -0.0477905 -0.4584
                CHANNELS 3 Zrotation Xrotation Yrotation
                JOINT rPinky2
                {
                  OFFSET -1.82734 -0.647385 -0.700984
                  CHANNELS 3 Zrotation Xrotation Yrotation
                  End Site
                  {
                    OFFSET -1.69225 -0.51767 -0.607171
                  }
                }
              }
            }
          }
        }
      }
      JOINT lCollar
      {
        OFFSET 2.68224 19.2634 -4.8768
        CHANNELS 3 Zrotation Xrotation Yrotation
        JOINT lShldr
        {
          OFFSET 8.77824 -1.95073 1.46304
          CHANNELS 3 Zrotation Xrotation Yrotation
          JOINT lForeArm
          {
            OFFSET 28.1742 -1.7115 0.48768
            CHANNELS 3 Zrotation Xrotation Yrotation
            JOINT lHand
            {
              OFFSET 22.5879 0.773209 7.07136
              CHANNELS 3 Zrotation Xrotation Yrotation
              JOINT lThumb1
              {
                OFFSET 1.2192 -0.487915 3.41376
                CHANNELS 3 Zrotation Xrotation Yrotation
                JOINT lThumb2
                {
                  OFFSET 3.37035 -0.52449 3.41376
                  CHANNELS 3 Zrotation Xrotation Yrotation
                  End Site
                  {
                    OFFSET 1.78271 -1.18214 1.43049
                  }
                }
              }
              JOINT lIndex1
              {
                OFFSET 7.75947 0.938293 5.60832
                CHANNELS 3 Zrotation Xrotation Yrotation
                JOINT lIndex2
                {
                  OFFSET 2.54057 -0.884171 1.56538
                  CHANNELS 3 Zrotation Xrotation Yrotation
                  End Site
                  {
                    OFFSET 1.62519 -0.234802 1.16502
                  }
                }
              }
              JOINT lMid1
              {
                OFFSET 8.24714 1.18213 3.41376
                CHANNELS 3 Zrotation Xrotation Yrotation
                JOINT lMid2
                {
                  OFFSET 3.10165 -0.590103 1.0647
                  CHANNELS 3 Zrotation Xrotation Yrotation
                  End Site
                  {
                    OFFSET 2.48547 -0.328903 0.83742
                  }
                }
              }
              JOINT lRing1
              {
                OFFSET 8.82822 0.546677 1.51678
                CHANNELS 3 Zrotation Xrotation Yrotation
                JOINT lRing2
                {
                  OFFSET 2.60934 -0.819778 -0.0198488
                  CHANNELS 3 Zrotation Xrotation Yrotation
                  End Site
                  {
                    OFFSET 2.33842 -0.294052 0.168128
                  }
                }
              }
              JOINT lPinky1
              {
                OFFSET 8.27202 -0.0477905 -0.4584
                CHANNELS 3 Zrotation Xrotation Yrotation
                JOINT lPinky2
                {
                  OFFSET 1.82734 -0.647385 -0.700984
                  CHANNELS 3 Zrotation Xrotation Yrotation
                  End Site
                  {
                    OFFSET 1.69225 -0.51767 -0.607171
                  }
                }
              }
            }
          }
        }
      }
    }
  }
  JOINT rButtock
  {
    OFFSET -8.77824 4.35084 1.2192
    CHANNELS 3 Zrotation Xrotation Yrotation
    JOINT rThigh
    {
      OFFSET 0 -1.70687 -2.19456
      CHANNELS 3 Zrotation Xrotation Yrotation
      JOINT rShin
      {
        OFFSET 0 -36.8199 0.73152
        CHANNELS 3 Zrotation Xrotation Yrotation
        JOINT rFoot
        {
          OFFSET 0.73152 -45.1104 -5.12064
          CHANNELS 3 Zrotation Xrotation Yrotation
          End Site
          {
            OFFSET -1.1221 -3.69964 12.103
          }
        }
      }
    }
  }
  JOINT lButtock
  {
    OFFSET 8.77824 4.35084 1.2192
    CHANNELS 3 Zrotation Xrotation Yrotation
    JOINT lThigh
    {
      OFFSET 0 -1.70687 -2.19456
      CHANNELS 3 Zrotation Xrotation Yrotation
      JOINT lShin
      {
        OFFSET 0 -36.8199 0.73152
        CHANNELS 3 Zrotation Xrotation Yrotation
        JOINT lFoot
        {
          OFFSET -0.73152 -45.1104 -5.12064
          CHANNELS 3 Zrotation Xrotation Yrotation
          End Site
          {
            OFFSET 1.1221 -3.69964 12.103
          }
        }
      }
    }
  }
}
MOTION
Frames:	4
Frame Time:	0.03333
0.05159999709576368 51.7346978187561 0.0590000010561198 -17.72949939655374 -29.04759925695948 13.297700417739703 15.03960014667347 9.657599764679244 2.8606499237057705 2.188260061713505 -6.946669935457679 0.9312849808304258 -0.002151550026075348 12.322199993873788 7.73889973530605 3.8533199490412167 -22.855800547911137 16.069399720667338 -0.0 0.0 0.0 -0.0 0.0 0.0 -1.7571500563856207e-13 -3.511890042802347e-13 2.2693800718753508e-13 105.68200072561156 45.956900509674114 -56.67869924232835 -26.69739946544979 -44.78000085907297 93.01139875859094 -4.866879894509736 -51.31980112142805 -10.11050021703268 -2.2188599040934376e-09 3.0609399834337015e-09 -5.055229767386708e-10 -3.802489885540937e-09 5.0702701135136804e-09 -9.626020305929666e-10 -2.2188400256266784e-09 3.0609399834337015e-09 -5.055340092877221e-10 7.730910121524428 5.474879855648998 0.41731399283890674 -2.218849964860058e-09 3.0609399834337015e-09 -5.055299838982034e-10 2.90554006136521 0.9651829962377875 0.10290200252939893 -2.218849964860058e-09 3.0609399834337015e-09 -5.055270021281895e-10 10.278599710243157 0.7318009818271524 0.025912300303053633 -2.2188599040934376e-09 3.0609399834337015e-09 -5.055219828153328e-10 2.221669932038622 -0.7334870246959406 -0.20891999872313852 -1.7581899632373825e-13 -3.5121700690552774e-13 2.2668299887799908e-13 -47.53769998174938 16.268699518006432 -35.48549992708713 14.329099963546648 -7.22311970767983 -26.21870053482757 1.9253601041441903 36.15550050353036 -5.894159982473517 -2.174470095112257e-09 -7.893079980099532e-09 -3.8052700879018715e-09 -3.860909916360724e-09 -1.3150000149956228e-08 -6.500779843639487e-09 -2.1744800343456364e-09 -7.893090316902247e-09 -3.805260148668492e-09 -7.730910121524428 5.474879855648998 -0.41731399283890674 -2.174470095112257e-09 -7.893090316902247e-09 -3.8052700879018715e-09 -2.90554006136521 0.9651829962377875 -0.10290200252939893 -2.174470095112257e-09 -7.893090316902247e-09 -3.8052700879018715e-09 -10.278599710243157 0.7318009818271524 -0.025912300303053633 -2.17445995709421e-09 -7.893079980099532e-09 -3.805280027135251e-09 -2.221669932038622 -0.7334870246959406 0.20891999872313852 -2.0321699793705798e-16 0.0 -3.882510030490358e-19 -10.278300035693322 12.496000133720285 -3.2157900919122264 0.07399049879371593 32.211001371050884 2.515969976769778 -8.387700258339207 -16.265999885736985 -33.260500918158364 2.0321699793705798e-16 0.0 3.882510030490358e-19 86.25419699004894 -52.31820060826008 73.025998869756 3.8260901192544914 76.27630148065748 -3.436819922652305 -0.48259902199915133 1.0216199955759566 -5.55310003579763
0.10989999864250422 51.726001501083374 0.0910000002477318 -17.618899850871017 -29.07730033456528 13.320199914639371 14.973900557047116 9.470019718182245 2.869979962112008 2.1737900925134213 -6.906049946689967 0.9242959897622102 0.005792990093239271 12.369799582199606 7.711779615432868 3.8670998556917175 -22.941299148394066 16.022100660665 -0.0 0.0 0.0 -0.0 0.0 0.0 -1.5460899745219542e-13 -2.1626599800328297e-13 3.7227401049763154e-13 105.72199831339115 45.79780149824242 -56.770800928191385 -26.711399645701025 -44.74639974345109 92.94319931972836 -4.833960090257566 -51.203998679145066 -10.068299893245756 -2.834680094226409e-09 4.5588500405224076e-09 -2.781840098114416e-10 -4.875529918769027e-09 7.636410012444097e-09 -5.91355015649986e-10 -2.834680094226409e-09 4.5588500405224076e-09 -2.781899981995528e-10 7.730910121524428 5.474879855648998 0.41731399283890674 -2.834680094226409e-09 4.5588500405224076e-09 -2.781899981995528e-10 2.90554006136521 0.9651829962377875 0.10290200252939893 -2.834680094226409e-09 4.5588500405224076e-09 -2.781859976581175e-10 10.278599710243157 0.7318009818271524 0.025912300303053633 -2.834690033459789e-09 4.5588500405224076e-09 -2.7817799657524696e-10 2.221669932038622 -0.7334870246959406 -0.20891999872313852 -1.5466000396724394e-13 -2.1628900189303843e-13 3.719760033561898e-13 -47.788900679044104 16.191200776588886 -35.457400528841696 14.319899698734641 -7.215469895809416 -26.199999476880073 1.8870399681360686 35.85230157608433 -5.828789949474618 -2.6321300474614217e-09 -1.1021700179308102e-08 -4.971499975727507e-09 -4.683680053091153e-09 -1.8429299497690373e-08 -8.500650208958123e-09 -2.632149925928181e-09 -1.1021700179308102e-08 -4.971490036494127e-09 -7.730910121524428 5.474879855648998 -0.41731399283890674 -2.6321300474614217e-09 -1.1021700179308102e-08 -4.971499975727507e-09 -2.90554006136521 0.9651829962377875 -0.10290200252939893 -2.6321399866948015e-09 -1.1021700179308102e-08 -4.9715099149608864e-09 -10.278599710243157 0.7318009818271524 -0.025912300303053633 -2.6321300474614217e-09 -1.1021700179308102e-08 -4.9715099149608864e-09 -2.221669932038622 -0.7334870246959406 0.20891999872313852 -2.0321699793705798e-16 0.0 -3.882510030490358e-19 -10.378399873074443 12.590799744305478 -3.1177399516123434 0.07588799738229687 31.949698823973705 2.5072800551548178 -8.330470103283671 -16.204400117159935 -33.21410002803188 2.0321699793705798e-16 0.0 3.882510030490358e-19 86.35350111039176 -52.17380016392225 73.47300059998749 3.8528200645713366 76.32980235242619 -3.446889969366431 -0.48844502359844755 0.9825630529111197 -5.763189824478053
0.16429999959655106 51.71440243721008 0.10400000028312206 -17.42610068607448 -29.171300813017577 13.30859969210775 14.752399229810896 9.364839927605926 2.9389100177723653 2.1813400128672242 -6.897209974356678 0.9362900153881641 0.02475969921050737 12.40380026388793 7.676149933627497 3.784939937052457 -23.08100042258292 15.94170079639749 -0.0 0.0 0.0 -0.0 0.0 0.0 -3.7703900055098865e-14 -5.858550202103064e-14 8.143029973829342e-14 105.86700322947051 45.701198717716345 -57.02049898386871 -26.68409937958848 -44.811901257591515 93.07590306511254 -4.876699998988921 -51.35439944466874 -10.123100208504061 -3.598989946241864e-10 6.148340193970504e-10 -2.60834990979104e-11 -6.202000127140146e-10 1.0370700470197465e-09 -5.722900005987068e-11 -3.598949940827511e-10 6.148280061608557e-10 -2.609009937007652e-11 7.730910121524428 5.474879855648998 0.41731399283890674 -3.599010073189458e-10 6.148370011670643e-10 -2.608449923326922e-11 2.90554006136521 0.9651829962377875 0.10290200252939893 -3.598959880060891e-10 6.148360072437263e-10 -2.6082601460895807e-11 10.278599710243157 0.7318009818271524 0.025912300303053633 -3.599029951656217e-10 6.148379950904022e-10 -2.60727988919752e-11 2.221669932038622 -0.7334870246959406 -0.20891999872313852 -3.785849990437971e-14 -5.859899982026742e-14 8.120660025656017e-14 -47.7417996945277 16.340800702432382 -35.486401512057576 14.33760013396873 -7.230060033650209 -26.235799913414695 1.900319990316689 35.95710058361442 -5.851390191664543 -6.446920231271251e-10 -5.715689837612691e-10 -5.297359928708166e-10 -1.1267100050234438e-09 -8.888210139773829e-10 -8.947669615620452e-10 -6.447069816733613e-10 -5.715390169726296e-10 -5.297199907050756e-10 -7.730910121524428 5.474879855648998 -0.41731399283890674 -6.44693017050463e-10 -5.715749969974637e-10 -5.297330111008028e-10 -2.90554006136521 0.9651829962377875 -0.10290200252939893 -6.446969927438148e-10 -5.715749969974637e-10 -5.297379807174926e-10 -10.278599710243157 0.7318009818271524 -0.025912300303053633 -6.446889916609443e-10 -5.715749969974637e-10 -5.297430000303493e-10 -2.221669932038622 -0.7334870246959406 0.20891999872313852 -2.0321699793705798e-16 0.0 -3.882510030490358e-19 -10.612399592718141 12.54209964174964 -2.9972199830469988 0.0762996029911761 31.864601497104516 2.503559949934688 -8.348449722500083 -16.286299207950265 -33.134801531768034 2.0321699793705798e-16 0.0 3.882510030490358e-19 86.28399710539772 -52.00300103844233 73.81709870018355 3.8626401690505223 76.34260212693079 -3.4423299643218015 -0.49956499845405145 0.9318410009175471 -5.940410181551435
0.2072999981464818 51.699298620224 0.11200000008102506 -17.254700503947596 -29.236498383739935 13.287000072631232 14.542099412813496 9.299079720050688 2.9832498983167954 2.193080040833418 -6.89060987718433 0.9428039881439465 0.04071029867617633 12.43579970014944 7.649099823193307 3.6863201162871126 -23.24099931143776 15.876499810580547 -0.0 0.0 0.0 -0.0 0.0 0.0 5.698610077465747e-14 4.0553400736090334e-14 -2.0663700168122377e-13 105.9769965958644 45.63680027912688 -57.208899506839764 -26.65659933044272 -44.8765011867615 93.20829945198406 -4.919859964354232 -51.50449968186895 -10.178300089828811 2.006040045046672e-09 -3.2702499016048048e-09 1.5543099884202612e-10 3.451120094952931e-09 -5.477059876718183e-09 3.4977200912607276e-10 2.0060499842800517e-09 -3.270260039622852e-09 1.5542099748843794e-10 7.730910121524428 5.474879855648998 0.41731399283890674 2.006040045046672e-09 -3.2702499016048048e-09 1.5543400546012346e-10 2.90554006136521 0.9651829962377875 0.10290200252939893 2.0060499842800517e-09 -3.2702499016048048e-09 1.5543400546012346e-10 10.278599710243157 0.7318009818271524 0.025912300303053633 2.006040045046672e-09 -3.2702499016048048e-09 1.5544300046633197e-10 2.221669932038622 -0.7334870246959406 -0.20891999872313852 5.6722399275770337e-14 4.054899954357515e-14 -2.067859931190914e-13 -47.60460168466965 16.515800394251862 -35.54559876159407 14.347500493170662 -7.238310048393938 -26.25589945259475 1.9345699739097177 36.2261007538862 -5.909570169901535 1.322230032019059e-09 9.103190390587978e-09 3.6370398164272164e-09 2.3869999273290065e-09 1.533409977193595e-08 6.2374000983141695e-09 1.3222099547676322e-09 9.103210269054738e-09 3.6370600924633104e-09 -7.730910121524428 5.474879855648998 -0.41731399283890674 1.3222199933933457e-09 9.103180053785264e-09 3.637050153229931e-09 -2.90554006136521 0.9651829962377875 -0.10290200252939893 1.3222199933933457e-09 9.103180053785264e-09 3.6370398164272164e-09 -10.278599710243157 0.7318009818271524 -0.025912300303053633 1.322230032019059e-09 9.103169716982549e-09 3.6370398164272164e-09 -2.221669932038622 -0.7334870246959406 0.20891999872313852 -2.0321699793705798e-16 0.0 -3.882510030490358e-19 -10.816999616853167 12.476599835156511 -2.89610991799895 0.07647830181740052 31.82890009831286 2.502359971074881 -8.372390389314624 -16.359399307542326 -33.08249935819866 2.0321699793705798e-16 0.0 3.882510030490358e-19 86.22600196915513 -51.8749998783017 74.12279747686581 3.8701200799653326 76.34960307083006 -3.4364999709783723 -0.5110179983925464 0.8954460177600169 -6.102990028138895
